<svg width="35" height="35" viewBox="0 0 35 35" fill="none" xmlns="http://www.w3.org/2000/svg">
<path d="M32.8125 3.27356L24.0548 3.27359V1.09375C24.0548 0.489453 23.5654 0 22.9611 0C22.3568 0 21.8673 0.489453 21.8673 1.09375V3.27305H13.1173V1.09375C13.1173 0.489453 12.6279 0 12.0236 0C11.4193 0 10.9298 0.489453 10.9298 1.09375V3.27305H2.1875C0.979453 3.27305 0 4.2525 0 5.46055V32.8043C0 34.0123 0.979453 34.9918 2.1875 34.9918H32.8125C34.0205 34.9918 35 34.0123 35 32.8043V5.46055C35 4.25301 34.0205 3.27356 32.8125 3.27356ZM32.8125 32.8043H2.1875V5.46055H10.9298V6.5625C10.9298 7.16676 11.4193 7.65625 12.0236 7.65625C12.6279 7.65625 13.1173 7.16676 13.1173 6.5625V5.46109H21.8673V6.56305C21.8673 7.16734 22.3568 7.6568 22.9611 7.6568C23.5654 7.6568 24.0548 7.16734 24.0548 6.56305V5.46109H32.8125V32.8043ZM25.1562 17.4923H27.3438C27.9475 17.4923 28.4375 17.0023 28.4375 16.3986V14.2111C28.4375 13.6073 27.9475 13.1173 27.3438 13.1173H25.1562C24.5525 13.1173 24.0625 13.6073 24.0625 14.2111V16.3986C24.0625 17.0023 24.5525 17.4923 25.1562 17.4923ZM25.1562 26.2418H27.3438C27.9475 26.2418 28.4375 25.7523 28.4375 25.148V22.9605C28.4375 22.3568 27.9475 21.8668 27.3438 21.8668H25.1562C24.5525 21.8668 24.0625 22.3568 24.0625 22.9605V25.148C24.0625 25.7529 24.5525 26.2418 25.1562 26.2418ZM18.5938 21.8668H16.4062C15.8025 21.8668 15.3125 22.3568 15.3125 22.9605V25.148C15.3125 25.7523 15.8025 26.2418 16.4062 26.2418H18.5938C19.1975 26.2418 19.6875 25.7523 19.6875 25.148V22.9605C19.6875 22.3573 19.1975 21.8668 18.5938 21.8668ZM18.5938 13.1173H16.4062C15.8025 13.1173 15.3125 13.6073 15.3125 14.2111V16.3986C15.3125 17.0023 15.8025 17.4923 16.4062 17.4923H18.5938C19.1975 17.4923 19.6875 17.0023 19.6875 16.3986V14.2111C19.6875 13.6068 19.1975 13.1173 18.5938 13.1173ZM9.84375 13.1173H7.65625C7.0525 13.1173 6.5625 13.6073 6.5625 14.2111V16.3986C6.5625 17.0023 7.0525 17.4923 7.65625 17.4923H9.84375C10.4475 17.4923 10.9375 17.0023 10.9375 16.3986V14.2111C10.9375 13.6068 10.4475 13.1173 9.84375 13.1173ZM9.84375 21.8668H7.65625C7.0525 21.8668 6.5625 22.3568 6.5625 22.9605V25.148C6.5625 25.7523 7.0525 26.2418 7.65625 26.2418H9.84375C10.4475 26.2418 10.9375 25.7523 10.9375 25.148V22.9605C10.9375 22.3573 10.4475 21.8668 9.84375 21.8668Z" fill="white"/>
</svg>
