<svg width="40" height="31" viewBox="0 0 40 31" fill="none" xmlns="http://www.w3.org/2000/svg">
<g clip-path="url(#clip0_38_1237)">
<path opacity="0.8" d="M32.7726 25.4136C32.7726 24.9509 32.5052 24.6202 32.0373 24.6202C31.5694 24.6202 31.302 24.9509 31.302 25.4136C31.302 25.8103 31.5694 26.1408 32.0373 26.1408C32.5052 26.1408 32.7726 25.8764 32.7726 25.4136ZM12.0521 24.6202C11.5842 24.6202 11.25 24.9509 11.25 25.4136C11.25 25.8103 11.5842 26.1408 12.0521 26.1408C12.4531 26.1408 12.7873 25.8764 12.7873 25.4136C12.7205 24.9509 12.4531 24.6202 12.0521 24.6202ZM19.8724 24.6202C19.5381 24.6202 19.2708 24.8186 19.2708 25.1491H20.5408C20.474 24.8186 20.2066 24.6202 19.8724 24.6202ZM27.0911 24.6202C26.6232 24.6202 26.3559 24.9509 26.3559 25.4136C26.3559 25.8103 26.6232 26.1408 27.0911 26.1408C27.5591 26.1408 27.8264 25.8764 27.8264 25.4136C27.8264 24.9509 27.5591 24.6202 27.0911 24.6202ZM34.1762 26.3392C34.1762 26.3392 34.1762 26.273 34.1093 26.273C34.1093 26.273 34.1093 26.273 34.0425 26.273C34.0425 26.2069 34.0425 26.2069 33.9757 26.2069C33.9757 26.2069 33.9757 26.2069 33.9089 26.273C33.9089 26.273 33.9089 26.273 33.842 26.273V26.3392C33.7752 26.3392 33.7752 26.4053 33.7752 26.4053C33.7752 26.4714 33.7752 26.4714 33.842 26.4714C33.842 26.5374 33.842 26.5374 33.842 26.5374C33.9089 26.5374 33.9089 26.6035 33.9089 26.6035C33.9757 26.6035 33.9757 26.6035 33.9757 26.6035C34.0425 26.6035 34.0425 26.6035 34.0425 26.6035C34.1093 26.6035 34.1093 26.5374 34.1093 26.5374C34.1762 26.5374 34.1762 26.5374 34.1762 26.4714C34.1762 26.4714 34.1762 26.4714 34.1762 26.4053V26.3392ZM34.0425 26.4714L34.1093 26.5374H34.0425L33.9757 26.4053V26.5374H33.9089V26.273H33.9757C34.0425 26.273 34.0425 26.3392 34.0425 26.3392C34.1093 26.3392 34.1093 26.3392 34.1093 26.3392C34.1093 26.4053 34.1093 26.4053 34.0425 26.4053V26.4714ZM39.0555 3.59692C39.0555 1.87802 37.5851 0.423584 35.8472 0.423584H3.76388C1.95919 0.423584 0.555542 1.87802 0.555542 3.59692V26.868C0.555542 28.653 1.95919 30.0414 3.76388 30.0414H35.8472C37.5851 30.0414 39.0555 28.653 39.0555 26.868V3.59692ZM4.83332 12.8524C4.83332 7.82803 8.97741 3.72914 14.0573 3.72914C15.8619 3.72914 17.6667 4.25802 19.204 5.2497C14.3246 9.15025 14.3246 16.5546 19.204 20.4552C17.6667 21.4469 15.8619 22.0419 14.0573 22.0419C8.97741 22.0419 4.83332 17.9431 4.83332 12.8524ZM19.8055 20.0586C15.0599 16.4225 15.0599 9.34858 19.8055 5.64636C24.4843 9.34858 24.4843 16.4225 19.8055 20.0586ZM10.2474 25.083V26.6035H9.71266C9.71266 25.2814 9.84634 24.6202 9.17794 24.6202C8.44269 24.6202 8.57638 25.4136 8.57638 26.6035H8.04165C8.04165 25.2814 8.17534 24.6202 7.50693 24.6202C6.70485 24.6202 6.90537 25.3475 6.90537 26.6035H6.37064V24.1575H6.90537V24.488C7.1059 24.2236 7.37324 24.0913 7.64062 24.0913C7.97481 24.0913 8.24217 24.2897 8.44269 24.5541C8.64322 24.2236 8.97741 24.0913 9.31161 24.0913C9.91318 24.1575 10.2474 24.488 10.2474 25.083ZM13.2552 24.1575V26.6035H12.7205V26.3392C12.5868 26.5374 12.3194 26.6697 11.9852 26.6697C11.25 26.6697 10.7153 26.1408 10.7153 25.4136C10.7153 24.6864 11.25 24.0913 11.9852 24.0913C12.3194 24.0913 12.5868 24.2897 12.7205 24.488V24.1575H13.2552ZM15.9956 25.8764C15.9956 26.8019 14.5252 26.868 13.7899 26.4053L14.0573 25.9425C14.5252 26.273 15.3941 26.3392 15.3941 25.8764C15.3941 25.4796 13.8567 25.8764 13.8567 24.8847C13.8567 23.9591 15.2603 23.9591 15.9288 24.3559L15.6615 24.8186C15.2603 24.5541 14.4583 24.488 14.4583 24.8847C14.4583 25.3475 15.9956 24.8847 15.9956 25.8764ZM18.3351 26.4714C18.0008 26.7358 16.7978 26.9342 16.7978 25.7441V24.6864H16.3298V24.1575H16.7978V23.4302H17.3992V24.1575H18.2682V24.6864H17.3992V25.7441C17.3992 26.3392 17.9341 26.2069 18.2014 26.0746L18.3351 26.4714ZM19.204 25.6119C19.4045 26.3392 20.1397 26.3392 20.6744 25.9425L20.9418 26.3392C20.2066 27.0003 18.6692 26.7358 18.6692 25.4136C18.6692 24.6202 19.204 24.0913 19.8724 24.0913C20.5408 24.0913 21.0756 24.5541 21.0756 25.6119H19.204ZM23.1476 24.1575L23.0139 24.6864C22.8133 24.5541 22.145 24.488 22.145 25.2153V26.6035H21.6103V24.1575H22.145V24.488C22.4123 24.0913 22.8802 24.0252 23.1476 24.1575ZM23.8828 25.4136C23.8828 26.1408 24.6849 26.4053 25.2865 25.9425L25.5538 26.4053C24.8186 27.0003 23.348 26.7358 23.348 25.4136C23.348 24.1575 24.7518 23.827 25.5538 24.4219L25.2865 24.8186C24.6849 24.4219 23.8828 24.6202 23.8828 25.4136ZM28.3611 24.1575V26.6035H27.8264V26.3392C27.2917 27.0003 25.8212 26.6697 25.8212 25.4136C25.8212 24.1575 27.2248 23.7608 27.8264 24.488V24.1575H28.3611ZM30.5668 24.1575L30.4331 24.6864C30.1658 24.5541 29.5643 24.488 29.5643 25.2153V26.6035H29.0295V24.1575H29.5643V24.488C29.8316 24.0252 30.4331 24.0913 30.5668 24.1575ZM33.3073 23.2319V26.6035H32.7726V26.3392C32.2379 27.0003 30.7674 26.6697 30.7674 25.4136C30.7674 24.1575 32.2379 23.7608 32.7726 24.488V23.2319H33.3073ZM33.7752 18.2074H33.6415H33.9757H33.842V18.5381H33.7752V18.2074ZM34.243 26.4053C34.243 26.4714 34.243 26.4714 34.243 26.5374C34.1762 26.5374 34.1762 26.5374 34.1762 26.6035C34.1762 26.6035 34.1093 26.6035 34.1093 26.6697C34.0425 26.6697 34.0425 26.6697 33.9757 26.6697H33.9089C33.842 26.6035 33.842 26.6035 33.842 26.6035C33.7752 26.5374 33.7752 26.5374 33.7752 26.5374C33.7752 26.4714 33.7752 26.4714 33.7752 26.4053V26.3392C33.7752 26.273 33.7752 26.273 33.842 26.273C33.842 26.2069 33.842 26.2069 33.9089 26.2069L33.9757 26.1408C34.0425 26.1408 34.0425 26.2069 34.1093 26.2069C34.1093 26.2069 34.1762 26.2069 34.1762 26.273C34.1762 26.273 34.1762 26.273 34.243 26.3392V26.4053ZM34.4436 18.2074V18.5381H34.3768V18.2736L34.3099 18.4719H34.243L34.1093 18.2736V18.5381H34.0425V18.2074H34.1762L34.243 18.4058L34.3768 18.2074H34.4436ZM34.7778 12.8524C34.7778 17.9431 30.5668 22.0419 25.4869 21.9758C23.6823 21.9758 21.8776 21.4469 20.4071 20.4552C25.2865 16.5546 25.2196 9.15025 20.4071 5.2497C21.8776 4.25802 23.6823 3.72914 25.4869 3.72914C30.5668 3.72914 34.7778 7.82803 34.7778 12.8524Z" fill="black"/>
</g>
<defs>
<clipPath id="clip0_38_1237">
<rect width="39.1111" height="30.2222" fill="white" transform="translate(0.554688 0.0556641)"/>
</clipPath>
</defs>
</svg>
