<svg width="40" height="31" viewBox="0 0 40 31" fill="none" xmlns="http://www.w3.org/2000/svg">
<g clip-path="url(#clip0_38_1235)">
<path opacity="0.8" d="M12.5443 15.3649C12.5443 14.7038 12.0763 14.3072 11.4748 14.3072C10.6059 14.3072 10.0043 14.9682 10.0043 15.7616C10.0043 16.4227 10.4722 16.7532 11.0737 16.7532C11.8758 16.7532 12.5443 16.1582 12.5443 15.3649ZM5.45916 12.1254H5.12496C5.05813 12.1254 4.92444 12.1916 4.92444 12.3237L4.65708 14.1088L5.1918 14.0427C5.92704 14.0427 6.5286 13.9765 6.66229 13.1171C6.79597 12.2577 6.1944 12.1254 5.45916 12.1254ZM24.4417 12.1254H24.1744C24.0407 12.1254 23.9739 12.1916 23.9071 12.3237L23.6397 14.1088L24.1744 14.0427C25.0433 14.0427 25.6449 13.8443 25.6449 12.8526C25.6449 12.1916 25.0433 12.1254 24.4417 12.1254ZM38.6119 3.531C38.6119 1.8121 37.1415 0.357666 35.4036 0.357666H3.32027C1.51559 0.357666 0.111938 1.8121 0.111938 3.531V26.8021C0.111938 28.5872 1.51559 29.9754 3.32027 29.9754H35.4036C37.1415 29.9754 38.6119 28.5872 38.6119 26.8021V3.531ZM8.66749 12.5221C8.66749 14.4393 7.46436 15.5632 5.59285 15.5632C5.25864 15.5632 4.45656 15.3649 4.38972 15.8277L4.05551 17.6126C4.05551 17.811 3.85499 18.0094 3.72131 18.0094H2.45135C2.31767 18.0094 2.18398 17.8771 2.25083 17.7449L3.32027 11.0016C3.32027 10.8032 3.52079 10.671 3.65448 10.671H6.32809C7.59805 10.671 8.66749 11.1338 8.66749 12.5221ZM14.2821 13.1171C14.4157 13.1171 14.5494 13.2494 14.4826 13.3815L13.8141 17.6126C13.8141 17.811 13.6137 18.0094 13.48 18.0094H12.2769C12.1432 18.0094 12.0763 17.8771 12.0763 17.7449C12.0763 17.6126 12.1432 17.4144 12.1432 17.2821C11.7421 17.7449 11.0069 18.0754 10.4053 18.0754C9.06853 18.0754 8.26646 17.2821 8.26646 15.9598C8.26646 14.3733 9.53642 12.9849 11.1406 12.9849C11.809 12.9849 12.3437 13.051 12.7447 13.646C12.7447 13.4476 12.7447 13.1171 13.0121 13.1171H14.2821ZM17.0225 19.596C16.9556 19.6622 16.822 19.7282 16.6883 19.7282H15.4183C15.2847 19.7282 15.2179 19.6622 15.2179 19.5299C15.2179 19.3315 16.3542 17.6787 16.5546 17.4144C16.421 17.0837 15.151 13.3815 15.151 13.3155C15.151 13.2494 15.2179 13.1171 15.3516 13.1171H16.6215C16.7552 13.1171 16.9556 13.2494 16.9556 13.3815L17.6909 15.8277L19.4956 13.2494C19.5625 13.1833 19.6961 13.1171 19.7629 13.1171H21.0998C21.1667 13.1171 21.3003 13.2494 21.3003 13.3155C21.3003 13.3815 21.3003 13.3815 21.2334 13.4476L17.0225 19.596ZM27.6501 12.5221C27.6501 14.4393 26.447 15.5632 24.5754 15.5632C24.2413 15.5632 23.4391 15.3649 23.3723 15.8277L23.0381 17.7449C23.0381 17.8771 22.9044 18.0094 22.7708 18.0094H21.434C21.3003 18.0094 21.2334 17.8771 21.2334 17.7449L22.3029 11.0016C22.3029 10.8032 22.5034 10.671 22.6371 10.671H25.3107C26.5806 10.671 27.6501 11.1338 27.6501 12.5221ZM33.2647 13.1171C33.3984 13.1171 33.5321 13.2494 33.4653 13.3815L32.7969 17.6126C32.7969 17.811 32.5963 18.0094 32.4627 18.0094H31.2595C31.1258 18.0094 31.059 17.8771 31.059 17.7449C31.059 17.6126 31.1258 17.4144 31.1258 17.2821C30.7248 17.7449 29.9895 18.0754 29.3879 18.0754C28.0512 18.0754 27.2491 17.2821 27.2491 15.9598C27.2491 14.3733 28.5191 12.9849 30.1232 12.9849C30.7917 12.9849 31.3264 13.051 31.7274 13.646C31.7274 13.4476 31.7274 13.1171 31.9947 13.1171H33.2647ZM36.473 10.8693V10.9354L35.3368 17.6126C35.3368 17.811 35.203 18.0094 35.0026 18.0094H33.9331C33.7994 18.0094 33.6657 17.8771 33.6657 17.7449L34.802 10.8693C34.802 10.7371 34.8689 10.671 35.0026 10.671H36.2056C36.3393 10.671 36.473 10.7371 36.473 10.8693ZM30.4574 14.3072C29.5885 14.3072 28.9869 14.9682 28.9869 15.7616C28.9869 16.4227 29.4548 16.7532 30.0564 16.7532C30.8584 16.7532 31.5268 16.1582 31.5268 15.3649C31.5268 14.7038 31.059 14.3072 30.4574 14.3072Z" fill="black"/>
</g>
<defs>
<clipPath id="clip0_38_1235">
<rect width="39.1111" height="30.2222" fill="white" transform="translate(0.110229 0.0556641)"/>
</clipPath>
</defs>
</svg>
