<svg width="40" height="31" viewBox="0 0 40 31" fill="none" xmlns="http://www.w3.org/2000/svg">
<g clip-path="url(#clip0_38_1239)">
<path opacity="0.8" d="M31.414 13.5801L31.2136 12.6546C31.0799 13.0512 30.8125 13.7124 30.8793 13.6463C30.8793 13.6463 30.0104 15.9601 29.8099 16.5551H32.0156C31.8819 16.0262 31.414 13.5801 31.414 13.5801ZM38.4991 3.53124C38.4991 1.81235 37.0287 0.35791 35.2908 0.35791H3.20748C1.40279 0.35791 -0.000854492 1.81235 -0.000854492 3.53124V26.8024C-0.000854492 28.5874 1.40279 29.9757 3.20748 29.9757H35.2908C37.0287 29.9757 38.4991 28.5874 38.4991 26.8024V3.53124ZM10.1589 20.1912H7.35157L4.94533 11.2662C4.07641 10.7374 3.14064 10.4068 2.13803 10.1424V9.87791H6.48266C7.08422 9.94402 7.5521 10.1424 7.68577 10.8035L8.62154 15.4973L8.88891 16.8857L11.5625 9.87791H14.3698L10.1589 20.1912ZM16.4418 20.1912H13.7682L15.4392 9.87791H18.1797L16.4418 20.1912ZM25.7995 16.8196C25.7995 18.9351 23.9948 20.3234 21.1206 20.3234C19.9176 20.3234 18.7813 20.0591 18.1797 19.7945L18.5139 17.4807L18.8481 17.6129C19.7839 18.0096 20.3186 18.2079 21.388 18.2079C22.1901 18.2079 22.9922 17.8774 22.9922 17.1501C22.9922 16.7535 22.658 16.423 21.5886 15.8941C20.586 15.4313 19.2491 14.5718 19.2491 13.1174C19.2491 11.134 21.1206 9.74568 23.7943 9.74568C24.8638 9.74568 25.6658 9.94402 26.2005 10.1424L25.8664 12.3901L25.599 12.258C25.1311 12.0596 24.4627 11.8612 23.5938 11.8612C22.5243 11.8612 22.0565 12.324 22.0565 12.7867C22.0565 13.2496 22.658 13.5801 23.5938 14.0429C25.1311 14.7702 25.8664 15.6296 25.7995 16.8196ZM35.2908 20.1912H32.7509C32.7509 20.1912 32.5503 19.0013 32.4835 18.6706H29.0079C28.8741 18.9351 28.4731 20.1912 28.4731 20.1912H25.599L29.6094 10.7374C29.8767 10.0762 30.3446 9.87791 31.013 9.87791H33.0851L35.2908 20.1912Z" fill="black"/>
</g>
<defs>
<clipPath id="clip0_38_1239">
<rect width="39.1111" height="30.2222" fill="white" transform="translate(-0.000854492 0.0556641)"/>
</clipPath>
</defs>
</svg>
